<?xml version="1.0" standalone="no"?>
<!DOCTYPE svg PUBLIC "-//W3C//DTD SVG 20010904//EN"
 "http://www.w3.org/TR/2001/REC-SVG-20010904/DTD/svg10.dtd">
<svg version="1.0" xmlns="http://www.w3.org/2000/svg"
 width="506.000000pt" height="600.000000pt" viewBox="0 0 506.000000 600.000000"
 preserveAspectRatio="xMidYMid meet">
<metadata>
Created by potrace 1.12, written by Peter Selinger 2001-2015
</metadata>
<g transform="translate(0.000000,600.000000) scale(0.100000,-0.100000)"
fill="#000000" stroke="none">
<path d="M1937 5925 c-4 -5 77 -30 180 -56 474 -119 710 -260 1090 -652 190
-196 327 -373 447 -579 128 -219 192 -399 266 -739 93 -435 151 -608 255 -765
90 -134 203 -218 332 -244 116 -25 201 6 304 111 75 75 137 188 165 299 20 80
14 323 -11 440 -42 193 -141 430 -266 635 -81 132 -241 357 -325 456 -209 247
-555 508 -906 685 -339 170 -799 325 -1143 384 -128 22 -375 38 -388 25z"/>
<path d="M1550 5864 c-267 -34 -642 -148 -895 -274 -188 -93 -254 -141 -392
-283 -112 -115 -166 -192 -185 -261 -24 -89 -18 -88 377 58 298 111 603 192
825 221 616 80 1069 70 1664 -39 l130 -23 -55 49 c-301 271 -453 367 -741 464
-205 69 -294 85 -508 89 -102 2 -201 1 -220 -1z"/>
<path d="M1914 4653 c-9 -20 -180 -476 -381 -1013 -201 -536 -473 -1265 -606
-1620 -133 -355 -243 -638 -244 -630 -2 8 69 731 156 1605 135 1343 158 1592
146 1604 -15 15 -43 9 -50 -11 -2 -7 -72 -692 -155 -1523 -146 -1471 -159
-1591 -166 -1570 -2 6 -87 680 -189 1499 -102 819 -190 1495 -196 1502 -15 18
-36 18 -47 -1 -5 -10 9 -152 35 -363 24 -191 117 -939 207 -1662 l164 -1315
-58 -101 c-33 -55 -71 -136 -86 -180 -23 -68 -26 -91 -21 -159 5 -95 19 -132
81 -212 32 -43 61 -69 98 -87 82 -41 135 -32 242 40 42 28 52 31 54 18 2 -9
-1 -75 -7 -146 -6 -72 -11 -150 -11 -174 l0 -43 66 -21 c82 -25 80 -25 100 5
22 33 10 64 -32 81 -19 8 -34 18 -34 22 0 11 71 276 75 280 9 9 160 -126 207
-184 29 -35 56 -64 61 -64 5 0 38 16 73 36 48 27 64 41 64 57 0 41 -14 50 -62
43 -44 -7 -46 -6 -82 39 -59 72 -105 154 -127 227 -27 92 -44 102 -147 93 -69
-6 -79 -5 -95 13 -18 19 -17 21 50 73 37 30 68 60 68 66 0 11 426 303 2265
1550 239 163 443 303 453 312 22 21 13 51 -15 51 -11 0 -108 -60 -216 -133
-109 -74 -570 -387 -1027 -697 -456 -310 -935 -635 -1063 -722 -129 -88 -236
-157 -239 -155 -2 3 475 580 1061 1284 743 890 1066 1284 1064 1298 -9 67 -18
57 -1057 -1190 -557 -669 -1016 -1214 -1018 -1211 -5 4 60 134 252 501 35 66
224 431 420 810 421 813 753 1453 876 1691 49 94 89 178 89 187 0 18 -38 33
-50 20 -5 -4 -125 -233 -268 -508 -143 -275 -548 -1058 -901 -1739 -354 -682
-652 -1251 -663 -1266 -11 -15 -38 -33 -60 -39 -22 -7 -46 -15 -54 -18 -11 -4
-14 6 -14 45 0 44 5 56 45 104 35 43 45 63 45 91 0 52 -17 82 -56 101 -56 26
-91 19 -144 -29 -19 -17 -33 -22 -58 -18 -28 5 -33 9 -30 27 3 11 292 787 642
1724 351 937 636 1711 634 1720 -2 9 -13 18 -26 20 -18 3 -26 -4 -38 -35z"/>
</g>
</svg>
