<?xml version="1.0" standalone="no"?>
<!DOCTYPE svg PUBLIC "-//W3C//DTD SVG 20010904//EN"
 "http://www.w3.org/TR/2001/REC-SVG-20010904/DTD/svg10.dtd">
<svg version="1.0" xmlns="http://www.w3.org/2000/svg"
 width="548.000000pt" height="548.000000pt" viewBox="0 0 548.000000 548.000000"
 preserveAspectRatio="xMidYMid meet">
<metadata>
Created by potrace 1.12, written by Peter Selinger 2001-2015
</metadata>
<g transform="translate(0.000000,548.000000) scale(0.100000,-0.100000)"
fill="#000000" stroke="none">
<path d="M2884 5300 c-193 -17 -481 -75 -633 -128 l-54 -18 92 -33 c320 -111
631 -282 948 -520 285 -214 514 -425 826 -760 110 -119 208 -225 218 -235 18
-19 19 -19 71 30 229 216 601 321 882 248 68 -18 170 -66 204 -97 41 -38 22
-6 -59 101 -248 324 -570 668 -794 846 -387 308 -788 491 -1205 550 -132 19
-377 27 -496 16z"/>
<path d="M1843 5065 c-487 -88 -932 -504 -1278 -1194 -203 -406 -404 -994
-515 -1511 -11 -52 -22 -104 -25 -115 -2 -13 32 15 88 70 399 391 993 609
1468 539 l36 -5 7 128 c3 70 13 290 21 487 24 567 45 764 116 1047 44 179 139
434 199 536 l19 33 -32 -1 c-18 0 -64 -7 -104 -14z"/>
<path d="M2140 4903 c-87 -45 -166 -262 -224 -614 -58 -357 -86 -687 -92
-1109 l-5 -325 22 35 c13 19 41 64 64 100 103 163 277 338 452 457 95 64 202
127 207 122 2 -2 286 -773 631 -1714 345 -941 629 -1711 630 -1713 2 -2 21 1
44 7 23 6 59 16 81 21 22 6 40 15 40 20 0 5 -282 776 -627 1712 -344 937 -627
1711 -627 1722 -2 43 260 104 485 113 283 11 524 -38 772 -156 42 -20 77 -36
77 -34 0 1 -21 28 -47 60 -318 394 -1029 956 -1523 1204 -192 96 -298 123
-360 92z"/>
</g>
</svg>
